<svg id="fidel-sanchez" xmlns="http://www.w3.org/2000/svg" viewBox="0 0 170.08 170.08"><defs><style>.cls-1{fill:#fff;}</style></defs><path class="cls-1" d="M85,0a85,85,0,1,0,85,85A85,85,0,0,0,85,0Zm0,160.08a75,75,0,1,1,75-75A75.12,75.12,0,0,1,85,160.08Z"/><path class="cls-1" d="M132.18,79.91,65.91,41.65A5.9,5.9,0,0,0,57,46.78V61.32H28.08a2.5,2.5,0,0,0,0,5H70.87a2.5,2.5,0,1,0,0-5H67V53.84L121.07,85l-54,31.2v-9H57v16a5.92,5.92,0,0,0,8.89,5.13l66.27-38.26A5.92,5.92,0,0,0,132.18,79.91Z"/><path class="cls-1" d="M57,70.32v7.32H42a2.5,2.5,0,0,0,0,5H83.15a2.5,2.5,0,0,0,0-5H67V70.32Z"/><path class="cls-1" d="M67,102.26H80.87a2.5,2.5,0,0,0,0-5H67V87.64H57v9.62H36.93a2.5,2.5,0,1,0,0,5H67Z"/></svg>