<svg id="fidel-sanchez" xmlns="http://www.w3.org/2000/svg" viewBox="0 0 170.08 170.08"><defs><style>.cls-1{fill:#fff;}</style></defs><path class="cls-1" d="M85,0a85,85,0,1,0,85,85A85,85,0,0,0,85,0Zm0,160.08a75,75,0,1,1,75-75A75.12,75.12,0,0,1,85,160.08Z"/><path class="cls-1" d="M128.19,56.3H110.55a6.87,6.87,0,0,1-6.78-5.75l-.06-.39A12.56,12.56,0,0,0,91.32,39.65H78.63A12.54,12.54,0,0,0,66.21,50.41h0A6.88,6.88,0,0,1,59.4,56.3H41.89A12.92,12.92,0,0,0,29,69.18v42.37a12.92,12.92,0,0,0,12.88,12.88h86.3a12.92,12.92,0,0,0,12.88-12.88V69.18A12.92,12.92,0,0,0,128.19,56.3Zm2.88,55.25a2.92,2.92,0,0,1-2.88,2.88H41.89A2.92,2.92,0,0,1,39,111.55V69.18a2.92,2.92,0,0,1,2.88-2.88H59.4A17,17,0,0,0,76.11,51.84a2.56,2.56,0,0,1,2.52-2.19H91.32a2.55,2.55,0,0,1,2.52,2.14l.06.38A16.82,16.82,0,0,0,110.55,66.3h17.64a2.92,2.92,0,0,1,2.88,2.88Z"/><path class="cls-1" d="M85,70.69a19.68,19.68,0,1,0,19.68,19.68A19.68,19.68,0,0,0,85,70.69Zm0,34.36A14.68,14.68,0,1,1,99.72,90.37,14.7,14.7,0,0,1,85,105.05Z"/></svg>