<svg id="fidel-sanchez" xmlns="http://www.w3.org/2000/svg" viewBox="0 0 170.08 170.08"><defs><style>.cls-1{fill:#fff;}</style></defs><path class="cls-1" d="M85,0a85,85,0,1,0,85,85A85,85,0,0,0,85,0Zm0,160.08a75,75,0,1,1,75-75A75.12,75.12,0,0,1,85,160.08Z"/><path class="cls-1" d="M113.21,37.29A18.63,18.63,0,0,0,100,32a20.48,20.48,0,0,0-8.25,1.73A17.89,17.89,0,0,0,85,38.78,19.16,19.16,0,0,0,70.12,32a18.66,18.66,0,0,0-13.26,5.3c-14.59,14.59,2.84,37.58,27.24,62H86C110.38,74.87,127.8,51.88,113.21,37.29ZM105.37,60c-3.69,7-10.22,15.37-20.33,26C74.92,75.32,68.39,67,64.71,60c-5.64-10.73-2.35-14-.78-15.59A8.79,8.79,0,0,1,70.12,42a9.28,9.28,0,0,1,7.14,3.07L85,54.69l7.78-9.63A9.27,9.27,0,0,1,100,42a8.76,8.76,0,0,1,6.19,2.37C107.72,45.94,111,49.22,105.37,60Z"/><path class="cls-1" d="M125,129.55h-80a2.5,2.5,0,0,0,0,5h80a2.5,2.5,0,1,0,0-5Z"/><path class="cls-1" d="M132.63,106.64H37.45a7.5,7.5,0,0,0,0,15h95.18a7.5,7.5,0,0,0,0-15Z"/></svg>