<svg id="fidel-sanchez" xmlns="http://www.w3.org/2000/svg" viewBox="0 0 170.08 170.08"><defs><style>.cls-1{fill:#fff;}</style></defs><path class="cls-1" d="M85,0a85,85,0,1,0,85,85A85,85,0,0,0,85,0Zm0,160.08a75,75,0,1,1,75-75A75.12,75.12,0,0,1,85,160.08Z"/><path class="cls-1" d="M130.39,101.93h-5.45a8.74,8.74,0,0,0,.83-3.72V61.87A8.83,8.83,0,0,0,117,53.05h-6.6V45.84a5,5,0,0,0-10,0v7.21h-10V28.12a5,5,0,0,0-10,0V53.05h-10V45.84a5,5,0,0,0-10,0v7.21H53.13a8.83,8.83,0,0,0-8.82,8.82V98.21a8.74,8.74,0,0,0,.83,3.72H39.68a5.27,5.27,0,0,0,0,10.54H63.32L43.58,130.68A5,5,0,1,0,50.36,138l27.71-25.56H92.63L120.34,138a5,5,0,1,0,6.78-7.35l-19.74-18.21h23a5.27,5.27,0,1,0,0-10.54ZM49.31,98.21V61.87a3.82,3.82,0,0,1,3.82-3.82H117a3.82,3.82,0,0,1,3.82,3.82V98.21a3.82,3.82,0,0,1-3,3.72H52.28A3.83,3.83,0,0,1,49.31,98.21Z"/></svg>