<svg id="fidel-sanchez" xmlns="http://www.w3.org/2000/svg" viewBox="0 0 170.08 170.08"><defs><style>.cls-1{fill:#fff;}</style></defs><path class="cls-1" d="M85,0a85,85,0,1,0,85,85A85,85,0,0,0,85,0Zm0,160.08a75,75,0,1,1,75-75A75.12,75.12,0,0,1,85,160.08Z"/><path class="cls-1" d="M145.19,49.2,107.81,86.58l7.07,7.07,35-35A70.23,70.23,0,0,0,145.19,49.2Z"/><path class="cls-1" d="M153.3,69.43,122,100.75l7.07,7.07L155,81.87A69.92,69.92,0,0,0,153.3,69.43Z"/><polygon class="cls-1" points="86.12 126.96 103.61 116.86 96.22 109.47 86.12 126.96"/><path class="cls-1" d="M74.75,132h-32a3,3,0,0,0,0,6.06h32a3,3,0,0,0,0-6.06Z"/><path class="cls-1" d="M53,120.87h21.8a2.5,2.5,0,0,0,0-5H53a2.5,2.5,0,1,0,0,5Z"/><path class="cls-1" d="M53,104.21h21.8a2.5,2.5,0,0,0,0-5H53a2.5,2.5,0,0,0,0,5Z"/><path class="cls-1" d="M74.75,82h-32a3,3,0,0,0,0,6.06h32a3,3,0,0,0,0-6.06Z"/><path class="cls-1" d="M53,70.87h21.8a2.5,2.5,0,0,0,0-5H53a2.5,2.5,0,0,0,0,5Z"/><path class="cls-1" d="M53,54.21h21.8a2.5,2.5,0,0,0,0-5H53a2.5,2.5,0,0,0,0,5Z"/><path class="cls-1" d="M74.75,32h-32a3,3,0,0,0,0,6.06h32a3,3,0,0,0,0-6.06Z"/></svg>