<svg id="fidel-sanchez" xmlns="http://www.w3.org/2000/svg" viewBox="0 0 170.08 170.08"><defs><style>.cls-1{fill:#fff;}</style></defs><path class="cls-1" d="M85,36.51a1.51,1.51,0,0,1,.71.19l40.79,23.56a1.41,1.41,0,0,1,.71,1.23v47.1a1.41,1.41,0,0,1-.71,1.23L85.75,133.37a1.36,1.36,0,0,1-1.42,0l-40.8-23.55a1.43,1.43,0,0,1-.71-1.23V61.49a1.43,1.43,0,0,1,.71-1.23L84.33,36.7a1.51,1.51,0,0,1,.71-.19m0-10A11.43,11.43,0,0,0,79.33,28L38.53,51.6a11.43,11.43,0,0,0-5.71,9.89v47.1a11.43,11.43,0,0,0,5.71,9.89L79.33,142a11.42,11.42,0,0,0,11.42,0l40.79-23.56a11.41,11.41,0,0,0,5.71-9.89V61.49a11.41,11.41,0,0,0-5.71-9.89L90.75,28A11.43,11.43,0,0,0,85,26.51Z"/><polygon class="cls-1" points="109.71 73.68 110.48 79.97 123.42 62.88 102.15 65.54 107.21 69.35 85.04 82.15 62.87 69.35 67.93 65.54 46.66 62.88 59.6 79.97 60.37 73.68 82.54 86.48 82.54 112.08 76.71 109.61 85.04 129.36 93.37 109.61 87.54 112.09 87.54 86.48 109.71 73.68"/><path class="cls-1" d="M85,10A75,75,0,1,1,10,85,75.12,75.12,0,0,1,85,10M85,0a85,85,0,1,0,85,85A85,85,0,0,0,85,0Z"/></svg>