<?xml version="1.0" encoding="utf-8"?>
<!-- Generator: Adobe Illustrator 24.2.1, SVG Export Plug-In . SVG Version: 6.00 Build 0)  -->
<svg version="1.1" id="Capa_1" xmlns="http://www.w3.org/2000/svg" xmlns:xlink="http://www.w3.org/1999/xlink" x="0px" y="0px"
	 viewBox="0 0 90.7 90.7" style="enable-background:new 0 0 90.7 90.7;" xml:space="preserve">
<style type="text/css">
	.st0{fill:#FFFFFF;}
</style>
<rect class="st0" width="90.7" height="90.7"/>
<g>
	<path d="M21.8,24.9v13.6h17.5V49H21.8v27.2H9.8V14.4h30.7v10.5H21.8z"/>
	<path d="M75.2,28C72.9,24.9,70,23,66,23c-3.9,0-7.5,3-7.5,7c0,10.4,24.5,6.1,24.5,26.8c0,12.4-7.7,21.2-20.3,21.2
		c-8.5,0-14.8-4.9-19-12.1l7.8-7.6c1.6,4.8,6,9,11.2,9c4.9,0,8-4.2,8-8.9c0-6.4-5.9-8.2-10.7-10.1c-8-3.3-13.8-7.3-13.8-16.9
		c0-10.2,7.6-18.5,18-18.5c5.5,0,13.1,2.7,16.9,6.9L75.2,28z"/>
</g>
</svg>
