<svg id="Capa_1" data-name="Capa 1" xmlns="http://www.w3.org/2000/svg" viewBox="0 0 397.93 551.56"><defs><style>.cls-1{fill:#1d1d1b;}</style></defs><path class="cls-1" d="M226.53,113v27.92h35.83v21.52H226.53v55.85H201.81V91.47h62.9V113Z" transform="translate(-84.5 -7.68)"/><path class="cls-1" d="M354.52,119.39c-4.7-6.39-10.76-10.43-19-10.43-7.91,0-15.47,6.06-15.47,14.3,0,21.36,50.29,12.44,50.29,55,0,25.39-15.82,43.39-41.71,43.39-17.5,0-30.28-10.09-39-24.72l16-15.65c3.36,9.76,12.28,18.5,22.88,18.5,10.09,0,16.31-8.57,16.31-18.33,0-13.11-12.11-16.82-22-20.69-16.32-6.73-28.26-15-28.26-34.64,0-21,15.64-38,37-38,11.27,0,26.91,5.54,34.65,14.12Z" transform="translate(-84.5 -7.68)"/><path class="cls-1" d="M271.37,310.22v3.37c0,23.22-16.37,41.05-40,41.05s-42.73-20.41-42.73-43.86c0-24.33,19.52-44.3,43.86-44.3a44.33,44.33,0,0,1,34.43,16.38l-7.4,7.06a33.81,33.81,0,0,0-26.59-13.79c-19,0-33.76,15.36-33.76,34.32,0,17.72,14.58,34.54,32.87,34.54,13.12,0,27.25-11.33,27.7-25.12H237.84v-9.65Z" transform="translate(-84.5 -7.68)"/><path class="cls-1" d="M313.3,268.28h17.49c25.91,0,47.44,13.68,47.44,41.83,0,28.83-21.08,42.73-47.77,42.73H313.3Zm10.54,74.92h3.7c21.53,0,40.15-8.08,40.15-32.64s-18.62-32.64-40.15-32.64h-3.7Z" transform="translate(-84.5 -7.68)"/><path class="cls-1" d="M222.47,477.75h25.69v9.65H211.93V402.84h10.54Z" transform="translate(-84.5 -7.68)"/><path class="cls-1" d="M342.68,487.4H332.14V412.48H312.06v-9.64h50.69v9.64H342.68Z" transform="translate(-84.5 -7.68)"/><path class="cls-1" d="M482.43,559.25H84.5V7.68H482.43ZM95.71,548H471.22V18.9H95.71Z" transform="translate(-84.5 -7.68)"/></svg>